{
  "accessors": [
    {
      "bufferView": 0,
      "byteOffset": 0,
      "componentType": 5123,
      "count": 7416,
      "type": "SCALAR",
      "max": [4941],
      "min": [0]
    },
    {
      "bufferView": 1,
      "byteOffset": 0,
      "componentType": 5126,
      "count": 4942,
      "type": "VEC3",
      "max": [283.9389953613281, -2848.4619140625, 4577.373046875],
      "min": [-331.3900146484375, -3268.35693359375, 4483.7021484375],
      "name": "POSITION"
    },
    {
      "bufferView": 1,
      "byteOffset": 12,
      "componentType": 5126,
      "count": 4942,
      "type": "VEC3",
      "max": [1.0000044107437134, 0.9869961738586426, 0.9836676120758057],
      "min": [-1.0000044107437134, -0.9999985694885254, -1.0000039339065552],
      "name": "NORMAL"
    },
    {
      "bufferView": 0,
      "byteOffset": 14832,
      "componentType": 5123,
      "count": 5832,
      "type": "SCALAR",
      "max": [3887],
      "min": [0]
    },
    {
      "bufferView": 2,
      "byteOffset": 0,
      "componentType": 5126,
      "count": 3888,
      "type": "VEC3",
      "max": [78.44100189208984, -3056.785888671875, 4605.8359375],
      "min": [-125.56300354003906, -3338.114990234375, 4412.115234375],
      "name": "POSITION"
    },
    {
      "bufferView": 2,
      "byteOffset": 12,
      "componentType": 5126,
      "count": 3888,
      "type": "VEC3",
      "max": [0.9999856352806091, 0.9993808269500732, 1.0000044107437134],
      "min": [-0.9999856352806091, -1.0000044107437134, -0.9924542903900146],
      "name": "NORMAL"
    },
    {
      "bufferView": 0,
      "byteOffset": 26496,
      "componentType": 5123,
      "count": 4884,
      "type": "SCALAR",
      "max": [3255],
      "min": [0]
    },
    {
      "bufferView": 3,
      "byteOffset": 0,
      "componentType": 5126,
      "count": 3256,
      "type": "VEC3",
      "max": [283.9389953613281, -2848.01611328125, 4565.85498046875],
      "min": [-331.3909912109375, -3210.60107421875, 4486.17822265625],
      "name": "POSITION"
    },
    {
      "bufferView": 3,
      "byteOffset": 12,
      "componentType": 5126,
      "count": 3256,
      "type": "VEC3",
      "max": [1.0000044107437134, 0.9996052980422974, 0.9989392757415771],
      "min": [-1.0000044107437134, -0.9791850447654724, -0.9818626642227173],
      "name": "NORMAL"
    },
    {
      "bufferView": 0,
      "byteOffset": 36264,
      "componentType": 5123,
      "count": 13428,
      "type": "SCALAR",
      "max": [11635],
      "min": [0]
    },
    {
      "bufferView": 4,
      "byteOffset": 0,
      "componentType": 5126,
      "count": 11636,
      "type": "VEC3",
      "max": [11997.9609375, -344356.78125, 451682.78125],
      "min": [11705.4384765625, -344526.9375, 451478.21875],
      "name": "POSITION"
    },
    {
      "bufferView": 4,
      "byteOffset": 12,
      "componentType": 5126,
      "count": 11636,
      "type": "VEC3",
      "max": [1.0000044107437134, 1.0000044107437134, 0.9998975396156311],
      "min": [-0.9996936917304993, -0.9998212456703186, -0.9995356202125549],
      "name": "NORMAL"
    },
    {
      "bufferView": 0,
      "byteOffset": 63120,
      "componentType": 5123,
      "count": 23442,
      "type": "SCALAR",
      "max": [20013],
      "min": [0]
    },
    {
      "bufferView": 5,
      "byteOffset": 0,
      "componentType": 5126,
      "count": 20014,
      "type": "VEC3",
      "max": [11976.705078125, -344438.21875, 451674.65625],
      "min": [11776.470703125, -344506.875, 451501.59375],
      "name": "POSITION"
    },
    {
      "bufferView": 5,
      "byteOffset": 12,
      "componentType": 5126,
      "count": 20014,
      "type": "VEC3",
      "max": [0.9999523758888245, 0.9998072385787964, 0.9993315935134888],
      "min": [-0.9990931153297424, -0.999793529510498, -0.9999579787254333],
      "name": "NORMAL"
    },
    {
      "bufferView": 0,
      "byteOffset": 110004,
      "componentType": 5123,
      "count": 2601,
      "type": "SCALAR",
      "max": [2410],
      "min": [0]
    },
    {
      "bufferView": 6,
      "byteOffset": 0,
      "componentType": 5126,
      "count": 2411,
      "type": "VEC3",
      "max": [11975.6376953125, -344362.9375, 451683.90625],
      "min": [11731.4521484375, -344523.0625, 451489.21875],
      "name": "POSITION"
    },
    {
      "bufferView": 6,
      "byteOffset": 12,
      "componentType": 5126,
      "count": 2411,
      "type": "VEC3",
      "max": [1.0000044107437134, 1.0000044107437134, 1.0000044107437134],
      "min": [-1.0000044107437134, -1.0000044107437134, -1.0000044107437134],
      "name": "NORMAL"
    },
    {
      "bufferView": 0,
      "byteOffset": 115208,
      "componentType": 5123,
      "count": 1113,
      "type": "SCALAR",
      "max": [856],
      "min": [0]
    },
    {
      "bufferView": 7,
      "byteOffset": 0,
      "componentType": 5126,
      "count": 857,
      "type": "VEC3",
      "max": [11900.53125, -344375.4375, 451631.09375],
      "min": [11733.53125, -344505.9375, 451530.09375],
      "name": "POSITION"
    },
    {
      "bufferView": 7,
      "byteOffset": 12,
      "componentType": 5126,
      "count": 857,
      "type": "VEC3",
      "max": [1.0000044107437134, 1.0000044107437134, 1.0000044107437134],
      "min": [-1.0000044107437134, -1.0000044107437134, -1.0000044107437134],
      "name": "NORMAL"
    },
    {
      "bufferView": 0,
      "byteOffset": 117436,
      "componentType": 5123,
      "count": 6471,
      "type": "SCALAR",
      "max": [4368],
      "min": [0]
    },
    {
      "bufferView": 8,
      "byteOffset": 0,
      "componentType": 5126,
      "count": 4369,
      "type": "VEC3",
      "max": [11891.53125, -344375.4375, 451617.375],
      "min": [11773.275390625, -344473.4375, 451544.71875],
      "name": "POSITION"
    },
    {
      "bufferView": 8,
      "byteOffset": 12,
      "componentType": 5126,
      "count": 4369,
      "type": "VEC3",
      "max": [1.0000044107437134, 1.0000044107437134, 1.0000044107437134],
      "min": [-1.0000044107437134, -1.0000044107437134, -1.0000044107437134],
      "name": "NORMAL"
    },
    {
      "bufferView": 0,
      "byteOffset": 130380,
      "componentType": 5123,
      "count": 1788,
      "type": "SCALAR",
      "max": [1358],
      "min": [0]
    },
    {
      "bufferView": 9,
      "byteOffset": 0,
      "componentType": 5126,
      "count": 1359,
      "type": "VEC3",
      "max": [11976.74609375, -344432.75, 451667.78125],
      "min": [11802.7373046875, -344487.1875, 451512.6875],
      "name": "POSITION"
    },
    {
      "bufferView": 9,
      "byteOffset": 12,
      "componentType": 5126,
      "count": 1359,
      "type": "VEC3",
      "max": [0.9993453621864319, 0.9979155659675598, 0.9677379131317139],
      "min": [-0.9936266541481018, -0.9977285265922546, -0.9997925758361816],
      "name": "NORMAL"
    },
    {
      "bufferView": 0,
      "byteOffset": 133956,
      "componentType": 5123,
      "count": 11538,
      "type": "SCALAR",
      "max": [9377],
      "min": [0]
    },
    {
      "bufferView": 10,
      "byteOffset": 0,
      "componentType": 5126,
      "count": 9378,
      "type": "VEC3",
      "max": [11976.5078125, -344441.25, 451673.25],
      "min": [11802.060546875, -344504.4375, 451509.4375],
      "name": "POSITION"
    },
    {
      "bufferView": 10,
      "byteOffset": 12,
      "componentType": 5126,
      "count": 9378,
      "type": "VEC3",
      "max": [0.999750554561615, 0.9985711574554443, 0.9997954964637756],
      "min": [-0.9984930157661438, -0.9997764229774475, -0.9975395202636719],
      "name": "NORMAL"
    },
    {
      "bufferView": 0,
      "byteOffset": 157032,
      "componentType": 5123,
      "count": 2088,
      "type": "SCALAR",
      "max": [1695],
      "min": [0]
    },
    {
      "bufferView": 11,
      "byteOffset": 0,
      "componentType": 5126,
      "count": 1696,
      "type": "VEC3",
      "max": [11962.830078125, -344452.09375, 451656.21875],
      "min": [11932.787109375, -344465.46875, 451624.09375],
      "name": "POSITION"
    },
    {
      "bufferView": 11,
      "byteOffset": 12,
      "componentType": 5126,
      "count": 1696,
      "type": "VEC3",
      "max": [0.9967375993728638, 0.9957489371299744, 0.9981581568717957],
      "min": [-0.9980856776237488, -0.9969963431358337, -0.9992595911026001],
      "name": "NORMAL"
    },
    {
      "bufferView": 0,
      "byteOffset": 161208,
      "componentType": 5123,
      "count": 2472,
      "type": "SCALAR",
      "max": [1733],
      "min": [0]
    },
    {
      "bufferView": 12,
      "byteOffset": 0,
      "componentType": 5126,
      "count": 1734,
      "type": "VEC3",
      "max": [11906.40625, -344357.90625, 451655.90625],
      "min": [11815.1767578125, -344477.03125, 451519.46875],
      "name": "POSITION"
    },
    {
      "bufferView": 12,
      "byteOffset": 12,
      "componentType": 5126,
      "count": 1734,
      "type": "VEC3",
      "max": [1.0000044107437134, 0.9980179071426392, 0.9955310225486755],
      "min": [-0.9992091655731201, -0.999401330947876, -0.9959391951560974],
      "name": "NORMAL"
    },
    {
      "bufferView": 0,
      "byteOffset": 166152,
      "componentType": 5123,
      "count": 252,
      "type": "SCALAR",
      "max": [236],
      "min": [0]
    },
    {
      "bufferView": 13,
      "byteOffset": 0,
      "componentType": 5126,
      "count": 237,
      "type": "VEC3",
      "max": [11921.4033203125, -344462.21875, 451581.25],
      "min": [11816.75390625, -344469.4375, 451525.65625],
      "name": "POSITION"
    },
    {
      "bufferView": 13,
      "byteOffset": 12,
      "componentType": 5126,
      "count": 237,
      "type": "VEC3",
      "max": [0.9901973009109497, 0.9908050298690796, 0.9873183369636536],
      "min": [-0.9284447431564331, -0.994992196559906, -0.9897004961967468],
      "name": "NORMAL"
    },
    {
      "bufferView": 0,
      "byteOffset": 166656,
      "componentType": 5123,
      "count": 2304,
      "type": "SCALAR",
      "max": [1631],
      "min": [0]
    },
    {
      "bufferView": 14,
      "byteOffset": 0,
      "componentType": 5126,
      "count": 1632,
      "type": "VEC3",
      "max": [11919.5634765625, -344454.25, 451533.34375],
      "min": [11901.8427734375, -344461.84375, 451515.25],
      "name": "POSITION"
    },
    {
      "bufferView": 14,
      "byteOffset": 12,
      "componentType": 5126,
      "count": 1632,
      "type": "VEC3",
      "max": [0.9984545111656189, 0.9973104000091553, 0.9926104545593262],
      "min": [-0.9984545111656189, -0.9973104000091553, -0.9926104545593262],
      "name": "NORMAL"
    },
    {
      "bufferView": 0,
      "byteOffset": 171264,
      "componentType": 5123,
      "count": 720,
      "type": "SCALAR",
      "max": [719],
      "min": [0]
    },
    {
      "bufferView": 15,
      "byteOffset": 0,
      "componentType": 5126,
      "count": 720,
      "type": "VEC3",
      "max": [11979.072265625, -344430.03125, 451670.1875],
      "min": [11800.724609375, -344489.75, 451510.65625],
      "name": "POSITION"
    },
    {
      "bufferView": 15,
      "byteOffset": 12,
      "componentType": 5126,
      "count": 720,
      "type": "VEC3",
      "max": [0.98603355884552, 0.9951937198638916, 0.9644106030464172],
      "min": [-0.9977736473083496, -0.9616963863372803, -0.9888532757759094],
      "name": "NORMAL"
    },
    {
      "bufferView": 0,
      "byteOffset": 172704,
      "componentType": 5123,
      "count": 36,
      "type": "SCALAR",
      "max": [30],
      "min": [0]
    },
    {
      "bufferView": 16,
      "byteOffset": 0,
      "componentType": 5126,
      "count": 31,
      "type": "VEC3",
      "max": [11866.65625, -344463.8125, 451581.71875],
      "min": [11864.857421875, -344465.375, 451578.34375],
      "name": "POSITION"
    },
    {
      "bufferView": 16,
      "byteOffset": 12,
      "componentType": 5126,
      "count": 31,
      "type": "VEC3",
      "max": [0.9227219223976135, 0.9267248511314392, 0.5696552395820618],
      "min": [-0.9351126551628113, -0.9925898909568787, -0.6393743753433228],
      "name": "NORMAL"
    }
  ],
  "asset": { "generator": "Aspose.3D 21.5.1", "version": "2.0" },
  "buffers": [
    {
      "uri": "data:application/octet-stream;base64,",
      "byteLength": 2246084
    }
  ],
  "bufferViews": [
    { "buffer": 0, "byteOffset": 0, "byteLength": 172776, "target": 34963 },
    {
      "buffer": 0,
      "byteOffset": 172780,
      "byteLength": 177984,
      "byteStride": 24,
      "target": 34962
    },
    {
      "buffer": 0,
      "byteOffset": 350768,
      "byteLength": 139968,
      "byteStride": 24,
      "target": 34962
    },
    {
      "buffer": 0,
      "byteOffset": 490740,
      "byteLength": 117216,
      "byteStride": 24,
      "target": 34962
    },
    {
      "buffer": 0,
      "byteOffset": 607960,
      "byteLength": 322272,
      "byteStride": 24,
      "target": 34962
    },
    {
      "buffer": 0,
      "byteOffset": 930236,
      "byteLength": 562608,
      "byteStride": 24,
      "target": 34962
    },
    {
      "buffer": 0,
      "byteOffset": 1492848,
      "byteLength": 62424,
      "byteStride": 24,
      "target": 34962
    },
    {
      "buffer": 0,
      "byteOffset": 1555276,
      "byteLength": 26712,
      "byteStride": 24,
      "target": 34962
    },
    {
      "buffer": 0,
      "byteOffset": 1581992,
      "byteLength": 155304,
      "byteStride": 24,
      "target": 34962
    },
    {
      "buffer": 0,
      "byteOffset": 1737300,
      "byteLength": 42912,
      "byteStride": 24,
      "target": 34962
    },
    {
      "buffer": 0,
      "byteOffset": 1780216,
      "byteLength": 276912,
      "byteStride": 24,
      "target": 34962
    },
    {
      "buffer": 0,
      "byteOffset": 2057132,
      "byteLength": 50112,
      "byteStride": 24,
      "target": 34962
    },
    {
      "buffer": 0,
      "byteOffset": 2107248,
      "byteLength": 59328,
      "byteStride": 24,
      "target": 34962
    },
    {
      "buffer": 0,
      "byteOffset": 2166580,
      "byteLength": 6048,
      "byteStride": 24,
      "target": 34962
    },
    {
      "buffer": 0,
      "byteOffset": 2172632,
      "byteLength": 55296,
      "byteStride": 24,
      "target": 34962
    },
    {
      "buffer": 0,
      "byteOffset": 2227932,
      "byteLength": 17280,
      "byteStride": 24,
      "target": 34962
    },
    {
      "buffer": 0,
      "byteOffset": 2245216,
      "byteLength": 864,
      "byteStride": 24,
      "target": 34962
    }
  ],
  "images": [
    {
      "uri": "data:image/png;base64,"
    }
  ],
  "materials": [
    {
      "pbrMetallicRoughness": {
        "baseColorFactor": [0.851, 0.851, 0.851, 1],
        "metallicFactor": 0,
        "roughnessFactor": 0
      },
      "emissiveFactor": [0, 0, 0],
      "alphaMode": "OPAQUE",
      "doubleSided": false
    },
    {
      "pbrMetallicRoughness": {
        "baseColorFactor": [0.851, 0.851, 0.851, 1],
        "metallicFactor": 0,
        "roughnessFactor": 0
      },
      "emissiveFactor": [0, 0, 0],
      "alphaMode": "OPAQUE",
      "doubleSided": false
    },
    {
      "pbrMetallicRoughness": {
        "baseColorFactor": [0.243, 0.247, 0.318, 1],
        "metallicFactor": 0,
        "roughnessFactor": 0
      },
      "emissiveFactor": [0, 0, 0],
      "alphaMode": "OPAQUE",
      "doubleSided": false
    },
    {
      "pbrMetallicRoughness": {
        "baseColorFactor": [0, 0.59, 0.53, 1],
        "metallicFactor": 0,
        "roughnessFactor": 0
      },
      "emissiveFactor": [0, 0, 0],
      "alphaMode": "OPAQUE",
      "doubleSided": false
    },
    {
      "pbrMetallicRoughness": {
        "baseColorFactor": [0.3, 0.69, 0.31, 1],
        "metallicFactor": 0,
        "roughnessFactor": 0
      },
      "emissiveFactor": [0, 0, 0],
      "alphaMode": "OPAQUE",
      "doubleSided": false
    },
    {
      "pbrMetallicRoughness": {
        "baseColorFactor": [0.81, 0.85, 0.86, 1],
        "metallicFactor": 0,
        "roughnessFactor": 0
      },
      "emissiveFactor": [0, 0, 0],
      "alphaMode": "OPAQUE",
      "doubleSided": false
    },
    {
      "pbrMetallicRoughness": {
        "baseColorFactor": [0.5, 0.87, 0.92, 1],
        "metallicFactor": 0,
        "roughnessFactor": 0
      },
      "emissiveFactor": [0, 0, 0],
      "alphaMode": "OPAQUE",
      "doubleSided": false
    },
    {
      "pbrMetallicRoughness": {
        "baseColorFactor": [1, 1, 1, 1],
        "baseColorTexture": { "index": 0, "texCoord": 0 },
        "metallicFactor": 0,
        "roughnessFactor": 0
      },
      "emissiveFactor": [0, 0, 0],
      "alphaMode": "OPAQUE",
      "doubleSided": false
    },
    {
      "pbrMetallicRoughness": {
        "baseColorFactor": [1, 0.92, 0.23, 1],
        "metallicFactor": 0,
        "roughnessFactor": 0
      },
      "emissiveFactor": [0, 0, 0],
      "alphaMode": "OPAQUE",
      "doubleSided": false
    },
    {
      "pbrMetallicRoughness": {
        "baseColorFactor": [0.55, 0.76, 0.29, 1],
        "metallicFactor": 0,
        "roughnessFactor": 0
      },
      "emissiveFactor": [0, 0, 0],
      "alphaMode": "OPAQUE",
      "doubleSided": false
    },
    {
      "pbrMetallicRoughness": {
        "baseColorFactor": [1, 1, 1, 1],
        "metallicFactor": 0,
        "roughnessFactor": 0
      },
      "emissiveFactor": [0, 0, 0],
      "alphaMode": "OPAQUE",
      "doubleSided": false
    },
    {
      "pbrMetallicRoughness": {
        "baseColorFactor": [0.47, 0.33, 0.28, 1],
        "metallicFactor": 0,
        "roughnessFactor": 0
      },
      "emissiveFactor": [0, 0, 0],
      "alphaMode": "OPAQUE",
      "doubleSided": false
    },
    {
      "pbrMetallicRoughness": {
        "baseColorFactor": [1, 0.6, 0, 1],
        "metallicFactor": 0,
        "roughnessFactor": 0
      },
      "emissiveFactor": [0, 0, 0],
      "alphaMode": "OPAQUE",
      "doubleSided": false
    },
    {
      "pbrMetallicRoughness": {
        "baseColorFactor": [0.61, 0.15, 0.69, 1],
        "metallicFactor": 0,
        "roughnessFactor": 0
      },
      "emissiveFactor": [0, 0, 0],
      "alphaMode": "OPAQUE",
      "doubleSided": false
    },
    {
      "pbrMetallicRoughness": {
        "baseColorFactor": [0.94, 0.38, 0.57, 1],
        "metallicFactor": 0,
        "roughnessFactor": 0
      },
      "emissiveFactor": [0, 0, 0],
      "alphaMode": "OPAQUE",
      "doubleSided": false
    },
    {
      "pbrMetallicRoughness": {
        "baseColorFactor": [0.96, 0.26, 0.21, 1],
        "metallicFactor": 0,
        "roughnessFactor": 0
      },
      "emissiveFactor": [0, 0, 0],
      "alphaMode": "OPAQUE",
      "doubleSided": false
    }
  ],
  "meshes": [
    {
      "primitives": [
        {
          "attributes": { "POSITION": 1, "NORMAL": 2 },
          "indices": 0,
          "material": 0,
          "mode": 4
        }
      ]
    },
    {
      "primitives": [
        {
          "attributes": { "POSITION": 4, "NORMAL": 5 },
          "indices": 3,
          "material": 1,
          "mode": 4
        }
      ]
    },
    {
      "primitives": [
        {
          "attributes": { "POSITION": 7, "NORMAL": 8 },
          "indices": 6,
          "material": 2,
          "mode": 4
        }
      ]
    },
    {
      "primitives": [
        {
          "attributes": { "POSITION": 10, "NORMAL": 11 },
          "indices": 9,
          "material": 3,
          "mode": 4
        }
      ]
    },
    {
      "primitives": [
        {
          "attributes": { "POSITION": 13, "NORMAL": 14 },
          "indices": 12,
          "material": 4,
          "mode": 4
        }
      ]
    },
    {
      "primitives": [
        {
          "attributes": { "POSITION": 16, "NORMAL": 17 },
          "indices": 15,
          "material": 5,
          "mode": 4
        }
      ]
    },
    {
      "primitives": [
        {
          "attributes": { "POSITION": 19, "NORMAL": 20 },
          "indices": 18,
          "material": 6,
          "mode": 4
        }
      ]
    },
    {
      "primitives": [
        {
          "attributes": { "POSITION": 22, "NORMAL": 23 },
          "indices": 21,
          "material": 7,
          "mode": 4
        }
      ]
    },
    {
      "primitives": [
        {
          "attributes": { "POSITION": 25, "NORMAL": 26 },
          "indices": 24,
          "material": 8,
          "mode": 4
        }
      ]
    },
    {
      "primitives": [
        {
          "attributes": { "POSITION": 28, "NORMAL": 29 },
          "indices": 27,
          "material": 9,
          "mode": 4
        }
      ]
    },
    {
      "primitives": [
        {
          "attributes": { "POSITION": 31, "NORMAL": 32 },
          "indices": 30,
          "material": 10,
          "mode": 4
        }
      ]
    },
    {
      "primitives": [
        {
          "attributes": { "POSITION": 34, "NORMAL": 35 },
          "indices": 33,
          "material": 11,
          "mode": 4
        }
      ]
    },
    {
      "primitives": [
        {
          "attributes": { "POSITION": 37, "NORMAL": 38 },
          "indices": 36,
          "material": 12,
          "mode": 4
        }
      ]
    },
    {
      "primitives": [
        {
          "attributes": { "POSITION": 40, "NORMAL": 41 },
          "indices": 39,
          "material": 13,
          "mode": 4
        }
      ]
    },
    {
      "primitives": [
        {
          "attributes": { "POSITION": 43, "NORMAL": 44 },
          "indices": 42,
          "material": 14,
          "mode": 4
        }
      ]
    },
    {
      "primitives": [
        {
          "attributes": { "POSITION": 46, "NORMAL": 47 },
          "indices": 45,
          "material": 15,
          "mode": 4
        }
      ]
    }
  ],
  "nodes": [
    { "mesh": 0, "name": "Body" },
    { "mesh": 1, "name": "Leg" },
    { "mesh": 2, "name": "Screen" },
    { "mesh": 3, "name": "Buffer_Layer" },
    { "mesh": 4, "name": "Buffer_Layer" },
    { "mesh": 5, "name": "Buffer_Layer" },
    { "mesh": 6, "name": "Buffer_Layer" },
    { "mesh": 7, "name": "Buffer_Layer" },
    { "mesh": 8, "name": "Buffer_Layer" },
    { "mesh": 9, "name": "Buffer_Layer" },
    { "mesh": 10, "name": "Buffer_Layer" },
    { "mesh": 11, "name": "Buffer_Layer" },
    { "mesh": 12, "name": "Buffer_Layer" },
    { "mesh": 13, "name": "Buffer_Layer" },
    { "mesh": 14, "name": "Buffer_Layer" },
    { "mesh": 15, "name": "Buffer_Layer" }
  ],
  "samplers": [
    { "magFilter": 9729, "minFilter": 9729, "wrapS": 10497, "wrapT": 10497 }
  ],
  "scene": 0,
  "scenes": [
    { "nodes": [0, 1, 2, 3, 4, 5, 6, 7, 8, 9, 10, 11, 12, 13, 14, 15] }
  ],
  "textures": [{ "sampler": 0, "source": 0 }]
}
